<svg xmlns="http://www.w3.org/2000/svg" viewBox="0 0 120 120">
  <defs>
    <linearGradient id="gb" x1="0" y1="0" x2="1" y2="1">
      <stop offset="0" stop-color="#2a3850"/>
      <stop offset=".6" stop-color="#141d2e"/>
      <stop offset="1" stop-color="#0a111c"/>
    </linearGradient>
    <linearGradient id="g1" x1="0" y1="0" x2="1" y2="1">
      <stop offset="0" stop-color="#cbd5e1"/>
      <stop offset="1" stop-color="#475569"/>
    </linearGradient>
    <filter id="gl" x="-60%" y="-60%" width="220%" height="220%">
      <feGaussianBlur stdDeviation="2.4" result="b"/>
      <feMerge><feMergeNode in="b"/><feMergeNode in="SourceGraphic"/></feMerge>
    </filter>
  </defs>
  
  <path d="M30 36 L50 22 L74 22 L96 36 L100 60 L92 84 L28 84 L20 60 Z" fill="url(#g1)" opacity=".9"/>
  <path d="M40 52 L82 52 L78 96 L44 96 Z" fill="url(#gb)" stroke="url(#g1)" stroke-width="2.5"/>
  <path d="M48 66 L58 70 L50 76 Z" fill="url(#g1)" filter="url(#gl)"/>
  <path d="M74 66 L64 70 L72 76 Z" fill="url(#g1)" filter="url(#gl)"/>
  <path d="M54 86 H68 L60 92 Z" fill="url(#g1)"/>
  <path d="M10 44 L20 40 M110 44 L100 40 M14 66 L24 62 M106 66 L96 62" stroke="url(#g1)" stroke-width="2.5"/>
</svg>
