<svg xmlns="http://www.w3.org/2000/svg" viewBox="0 0 120 120">
  <defs>
    <linearGradient id="gb" x1="0" y1="0" x2="1" y2="1">
      <stop offset="0" stop-color="#2a3850"/>
      <stop offset=".6" stop-color="#141d2e"/>
      <stop offset="1" stop-color="#0a111c"/>
    </linearGradient>
    <linearGradient id="g1" x1="0" y1="0" x2="1" y2="1">
      <stop offset="0" stop-color="#fdba74"/>
      <stop offset="1" stop-color="#9a3412"/>
    </linearGradient>
    <filter id="gl" x="-60%" y="-60%" width="220%" height="220%">
      <feGaussianBlur stdDeviation="2.4" result="b"/>
      <feMerge><feMergeNode in="b"/><feMergeNode in="SourceGraphic"/></feMerge>
    </filter>
  </defs>
  
  <path d="M78 6 L84 26 L74 24 Z M88 12 L94 32 L84 30 Z M68 6 L72 26 L62 24 Z" fill="url(#g1)"/>
  <path d="M28 22 L84 10 L100 40 L94 62 L104 92 L70 96 L58 70 L34 78 L18 50 Z" fill="url(#gb)" stroke="url(#g1)" stroke-width="2.5"/>
  <circle cx="78" cy="36" r="5" fill="url(#g1)" filter="url(#gl)"/>
  <path d="M92 58 L110 64 L94 70 Z" fill="url(#g1)"/>
  <path d="M46 20 L36 44 L50 40 L42 62 L58 44 L46 46 Z" fill="url(#g1)" filter="url(#gl)"/>
  <path d="M30 84 L54 76" stroke="url(#g1)" stroke-width="2.5" opacity=".7"/>
</svg>
